<svg width="40" height="40" viewBox="0 0 40 40" fill="none" xmlns="http://www.w3.org/2000/svg">
<rect width="40" height="40" rx="20" fill="white"/>
<path d="M20.1334 19.0582C20.05 19.0498 19.95 19.0498 19.8584 19.0582C17.875 18.9915 16.3 17.3665 16.3 15.3665C16.3 13.3248 17.95 11.6665 20 11.6665C22.0417 11.6665 23.7 13.3248 23.7 15.3665C23.6917 17.3665 22.1167 18.9915 20.1334 19.0582Z" stroke="#047861" stroke-width="1.25" stroke-linecap="round" stroke-linejoin="round"/>
<path d="M15.9666 22.1335C13.9499 23.4835 13.9499 25.6835 15.9666 27.0252C18.2583 28.5585 22.0166 28.5585 24.3083 27.0252C26.3249 25.6752 26.3249 23.4752 24.3083 22.1335C22.0249 20.6085 18.2666 20.6085 15.9666 22.1335Z" stroke="#047861" stroke-width="1.25" stroke-linecap="round" stroke-linejoin="round"/>
</svg>
