<svg width="42" height="43" viewBox="0 0 42 43" fill="none" xmlns="http://www.w3.org/2000/svg">
<rect x="0.5" y="0.5" width="41" height="41" rx="20.5" stroke="#E5E5E5"/>
<g filter="url(#filter0_d_665_5272)">
<g clip-path="url(#clip0_665_5272)">
<path d="M15.6683 33.5133C15.1557 33.1723 14.7014 32.7509 14.3228 32.2653C13.9064 31.7642 13.5205 31.2383 13.1674 30.6907C12.3387 29.4767 11.6889 28.1498 11.2377 26.7509C10.6958 25.1259 10.4333 23.5683 10.4333 22.0449C10.4333 20.3435 10.8014 18.8583 11.5213 17.6103C12.0549 16.6348 12.8395 15.8197 13.7938 15.2491C14.7187 14.6747 15.7814 14.3603 16.87 14.3391C17.251 14.3391 17.6613 14.3944 18.0968 14.5C18.4097 14.5886 18.7907 14.7283 19.2563 14.9022C19.8486 15.1305 20.1744 15.2703 20.2849 15.3044C20.6318 15.4311 20.9235 15.4864 21.1527 15.4864C21.3265 15.4864 21.5719 15.4311 21.8506 15.3466C22.0074 15.2914 22.3032 15.1939 22.7265 15.0127C23.1457 14.86 23.4756 14.7291 23.738 14.6316C24.1402 14.513 24.5294 14.4033 24.8763 14.3481C25.2876 14.2832 25.705 14.2661 26.1203 14.2969C26.8398 14.3439 27.5486 14.4964 28.2238 14.7495C29.328 15.1939 30.221 15.8878 30.8856 16.8741C30.6047 17.0473 30.341 17.247 30.0983 17.4705C29.5698 17.939 29.1197 18.489 28.765 19.0996C28.3013 19.9341 28.0609 20.8741 28.067 21.8288C28.0841 23.0012 28.3847 24.0339 28.977 24.9268C29.4125 25.5886 29.9784 26.1546 30.6402 26.59C30.979 26.8183 31.2707 26.9751 31.5502 27.0808C31.4194 27.487 31.2797 27.8803 31.1147 28.2703C30.7406 29.1448 30.2873 29.9833 29.7603 30.7752C29.2907 31.4569 28.9226 31.9647 28.6431 32.3027C28.2076 32.8186 27.7883 33.2127 27.365 33.4873C26.8995 33.7961 26.3494 33.961 25.7904 33.961C25.4118 33.9756 25.0333 33.9298 24.6692 33.8253C24.3563 33.7197 24.0468 33.6051 23.7421 33.4743C23.4253 33.3288 23.0987 33.2058 22.7647 33.1063C21.9389 32.8942 21.0731 32.8928 20.2467 33.1022C19.9079 33.1997 19.5821 33.3135 19.2603 33.4532C18.8078 33.6433 18.5072 33.7709 18.3333 33.8253C17.9863 33.9269 17.6264 33.9903 17.2624 34.0114C16.6993 34.0114 16.1745 33.8505 15.6545 33.5247L15.6683 33.5133ZM23.0945 13.5136C22.3584 13.8817 21.6556 14.0385 20.9577 13.9873C20.848 13.2845 20.9577 12.5655 21.2493 11.7781C21.4977 11.1111 21.8646 10.4945 22.3324 9.95814C22.8264 9.39347 23.4259 8.93064 24.0972 8.59558C24.8122 8.22752 25.4938 8.02846 26.1455 7.99921C26.23 8.73533 26.1455 9.45927 25.8749 10.2417C25.6245 10.9334 25.2583 11.5774 24.7918 12.1462C24.3158 12.7116 23.7315 13.1763 23.0734 13.5128L23.0945 13.5136Z" fill="black"/>
</g>
</g>
<defs>
<filter id="filter0_d_665_5272" x="0" y="1" width="42" height="42" filterUnits="userSpaceOnUse" color-interpolation-filters="sRGB">
<feFlood flood-opacity="0" result="BackgroundImageFix"/>
<feColorMatrix in="SourceAlpha" type="matrix" values="0 0 0 0 0 0 0 0 0 0 0 0 0 0 0 0 0 0 127 0" result="hardAlpha"/>
<feOffset dy="1"/>
<feGaussianBlur stdDeviation="4"/>
<feComposite in2="hardAlpha" operator="out"/>
<feColorMatrix type="matrix" values="0 0 0 0 0 0 0 0 0 0 0 0 0 0 0 0 0 0 0.08 0"/>
<feBlend mode="normal" in2="BackgroundImageFix" result="effect1_dropShadow_665_5272"/>
<feBlend mode="normal" in="SourceGraphic" in2="effect1_dropShadow_665_5272" result="shape"/>
</filter>
<clipPath id="clip0_665_5272">
<rect width="26" height="26" fill="white" transform="translate(8 8)"/>
</clipPath>
</defs>
</svg>
