<svg width="40" height="40" viewBox="0 0 40 40" fill="none" xmlns="http://www.w3.org/2000/svg">
<rect width="40" height="40" rx="20" fill="white"/>
<path d="M20.0149 13.1826C17.5324 13.1826 15.5149 15.2001 15.5149 17.6826V19.8501C15.5149 20.3076 15.3199 21.0051 15.0874 21.3951L14.2249 22.8276C13.6924 23.7126 14.0599 24.6951 15.0349 25.0251C18.2674 26.1051 21.7549 26.1051 24.9874 25.0251C25.8949 24.7251 26.2924 23.6526 25.7974 22.8276L24.9349 21.3951C24.7099 21.0051 24.5149 20.3076 24.5149 19.8501V17.6826C24.5149 15.2076 22.4899 13.1826 20.0149 13.1826Z" stroke="#047861" stroke-width="1.125" stroke-miterlimit="10" stroke-linecap="round"/>
<path d="M21.4024 13.4001C21.1699 13.3326 20.9299 13.2801 20.6824 13.2501C19.9624 13.1601 19.2724 13.2126 18.6274 13.4001C18.8449 12.8451 19.3849 12.4551 20.0149 12.4551C20.6449 12.4551 21.1849 12.8451 21.4024 13.4001Z" stroke="#047861" stroke-width="1.125" stroke-miterlimit="10" stroke-linecap="round" stroke-linejoin="round"/>
<path d="M22.2649 25.2949C22.2649 26.5324 21.2524 27.5449 20.0149 27.5449C19.3999 27.5449 18.8299 27.2899 18.4249 26.8849C18.0199 26.4799 17.7649 25.9099 17.7649 25.2949" stroke="#047861" stroke-width="1.125" stroke-miterlimit="10"/>
</svg>
