<svg width="16" height="16" viewBox="0 0 16 16" fill="none" xmlns="http://www.w3.org/2000/svg">
<path d="M12.6466 14.6666H3.31323C1.31323 14.6666 1.31323 13.7666 1.31323 12.6666V11.9999C1.31323 11.6333 1.61323 11.3333 1.9799 11.3333H13.9799C14.3466 11.3333 14.6466 11.6333 14.6466 11.9999V12.6666C14.6466 13.7666 14.6466 14.6666 12.6466 14.6666Z" stroke="#047861" stroke-linecap="round" stroke-linejoin="round"/>
<path d="M13.8133 8.66659V11.3333H2.17993V8.66659C2.17993 6.10659 3.9866 3.96659 6.39327 3.45325C6.75327 3.37325 7.1266 3.33325 7.51327 3.33325H8.47993C8.8666 3.33325 9.2466 3.37325 9.6066 3.45325C12.0133 3.97325 13.8133 6.10659 13.8133 8.66659Z" stroke="#047861" stroke-linecap="round" stroke-linejoin="round"/>
<path d="M9.66659 2.99992C9.66659 3.15992 9.64659 3.30659 9.60659 3.45325C9.24659 3.37325 8.86659 3.33325 8.47992 3.33325H7.51325C7.12659 3.33325 6.75325 3.37325 6.39325 3.45325C6.35325 3.30659 6.33325 3.15992 6.33325 2.99992C6.33325 2.07992 7.07992 1.33325 7.99992 1.33325C8.91992 1.33325 9.66659 2.07992 9.66659 2.99992Z" stroke="#047861" stroke-linecap="round" stroke-linejoin="round"/>
<path d="M10 7.33325H6" stroke="#047861" stroke-linecap="round" stroke-linejoin="round"/>
</svg>
