<svg width="40" height="40" viewBox="0 0 40 40" fill="none" xmlns="http://www.w3.org/2000/svg">
<rect width="40" height="40" rx="20" fill="white"/>
<path d="M20.0001 28.3332C24.5834 28.3332 28.3334 24.5832 28.3334 19.9998C28.3334 15.4165 24.5834 11.6665 20.0001 11.6665C15.4167 11.6665 11.6667 15.4165 11.6667 19.9998C11.6667 24.5832 15.4167 28.3332 20.0001 28.3332Z" stroke="#047861" stroke-width="1.25" stroke-linecap="round" stroke-linejoin="round"/>
<path d="M19.9999 21.0376V20.8352C19.9999 20.1798 20.4048 19.8328 20.8096 19.5533C21.2048 19.2834 21.5999 18.9364 21.5999 18.3003C21.5999 17.4135 20.8867 16.7002 19.9999 16.7002C19.1131 16.7002 18.3999 17.4135 18.3999 18.3003" stroke="#047861" stroke-width="1.44581" stroke-linecap="round" stroke-linejoin="round"/>
<path d="M19.9956 23.3413H20.0043" stroke="#047861" stroke-width="1.44581" stroke-linecap="round" stroke-linejoin="round"/>
</svg>
