<svg width="48" height="48" viewBox="0 0 48 48" fill="none" xmlns="http://www.w3.org/2000/svg">
<rect width="48" height="48" rx="24" fill="white"/>
<path d="M32.3333 19.4166H27.3333" stroke="#292D32" stroke-width="1.25" stroke-miterlimit="10" stroke-linecap="round" stroke-linejoin="round"/>
<path d="M19.0001 19.4166H15.6667" stroke="#292D32" stroke-width="1.25" stroke-miterlimit="10" stroke-linecap="round" stroke-linejoin="round"/>
<path d="M22.3334 22.3333C23.9442 22.3333 25.2501 21.0275 25.2501 19.4167C25.2501 17.8058 23.9442 16.5 22.3334 16.5C20.7226 16.5 19.4167 17.8058 19.4167 19.4167C19.4167 21.0275 20.7226 22.3333 22.3334 22.3333Z" stroke="#292D32" stroke-width="1.25" stroke-miterlimit="10" stroke-linecap="round" stroke-linejoin="round"/>
<path d="M32.3333 28.5834H29" stroke="#292D32" stroke-width="1.25" stroke-miterlimit="10" stroke-linecap="round" stroke-linejoin="round"/>
<path d="M20.6667 28.5834H15.6667" stroke="#292D32" stroke-width="1.25" stroke-miterlimit="10" stroke-linecap="round" stroke-linejoin="round"/>
<path d="M25.6667 31.5C27.2775 31.5 28.5833 30.1941 28.5833 28.5833C28.5833 26.9725 27.2775 25.6666 25.6667 25.6666C24.0558 25.6666 22.75 26.9725 22.75 28.5833C22.75 30.1941 24.0558 31.5 25.6667 31.5Z" stroke="#292D32" stroke-width="1.25" stroke-miterlimit="10" stroke-linecap="round" stroke-linejoin="round"/>
</svg>
