<svg width="32" height="32" viewBox="0 0 32 32" fill="none" xmlns="http://www.w3.org/2000/svg">
<path d="M11.9999 13.3333C13.4727 13.3333 14.6666 12.1394 14.6666 10.6667C14.6666 9.19391 13.4727 8 11.9999 8C10.5272 8 9.33325 9.19391 9.33325 10.6667C9.33325 12.1394 10.5272 13.3333 11.9999 13.3333Z" stroke="#6E6E6E" stroke-width="2" stroke-linecap="round" stroke-linejoin="round"/>
<path d="M17.3334 2.6665H12.0001C5.33341 2.6665 2.66675 5.33317 2.66675 11.9998V19.9998C2.66675 26.6665 5.33341 29.3332 12.0001 29.3332H20.0001C26.6667 29.3332 29.3334 26.6665 29.3334 19.9998V13.3332" stroke="#6E6E6E" stroke-width="2" stroke-linecap="round" stroke-linejoin="round"/>
<path d="M21 6.6665H28.3333" stroke="#6E6E6E" stroke-width="2" stroke-linecap="round"/>
<path d="M24.6667 10.3333V3" stroke="#6E6E6E" stroke-width="2" stroke-linecap="round"/>
<path d="M3.56006 25.2666L10.1334 20.8532C11.1867 20.1466 12.7067 20.2266 13.6534 21.0399L14.0934 21.4266C15.1334 22.3199 16.8134 22.3199 17.8534 21.4266L23.4001 16.6666C24.4401 15.7732 26.1201 15.7732 27.1601 16.6666L29.3334 18.5332" stroke="#6E6E6E" stroke-width="2" stroke-linecap="round" stroke-linejoin="round"/>
</svg>
