<svg width="28" height="28" viewBox="0 0 28 28" fill="none" xmlns="http://www.w3.org/2000/svg">
<path d="M14.0002 2.33325C10.9435 2.33325 8.4585 4.81825 8.4585 7.87492C8.4585 10.8733 10.8035 13.2999 13.8602 13.4049C13.9535 13.3933 14.0468 13.3933 14.1168 13.4049C14.1402 13.4049 14.1518 13.4049 14.1752 13.4049C14.1868 13.4049 14.1868 13.4049 14.1985 13.4049C17.1852 13.2999 19.5302 10.8733 19.5418 7.87492C19.5418 4.81825 17.0568 2.33325 14.0002 2.33325Z" fill="#047861"/>
<path d="M19.9266 16.5084C16.6716 14.3384 11.3633 14.3384 8.08495 16.5084C6.60329 17.5 5.78662 18.8417 5.78662 20.2767C5.78662 21.7117 6.60329 23.0417 8.07329 24.0217C9.70662 25.1184 11.8533 25.6667 14 25.6667C16.1466 25.6667 18.2933 25.1184 19.9266 24.0217C21.3966 23.03 22.2133 21.7 22.2133 20.2534C22.2016 18.8184 21.3966 17.4884 19.9266 16.5084Z" fill="#047861"/>
</svg>
