<svg width="28" height="28" viewBox="0 0 28 28" fill="none" xmlns="http://www.w3.org/2000/svg">
<path d="M14.0298 2.95599C12.71 3.30352 11.8651 4.65099 12.1426 5.96187C12.2598 6.5228 12.488 6.93131 12.9012 7.31543C13.3884 7.77271 13.9311 7.99831 14.5972 8.02879C15.7875 8.08367 16.7188 7.52273 17.1998 6.45574C17.4218 5.96797 17.3602 5.9009 16.9223 6.12649C16.4782 6.35208 15.7567 6.37038 15.3126 6.16917C14.591 5.83993 14.1902 5.22412 14.1902 4.44369C14.184 3.92543 14.3135 3.57789 14.6404 3.21207C14.7452 3.09012 14.8316 2.96208 14.8316 2.9255C14.8316 2.83404 14.443 2.84624 14.0298 2.95599Z" fill="#047861"/>
<path d="M14.4737 9.19926C14.1284 9.91872 13.3266 10.626 12.1178 11.2845C11.8958 11.4064 11.2482 11.7174 10.6685 11.9735C8.20771 13.0831 7.5478 13.4672 6.71521 14.2843C6.08614 14.9062 5.79011 15.4122 5.60509 16.1805C5.46324 16.7841 5.51258 18.0279 5.70377 18.6193C5.88262 19.1742 6.21566 19.8326 6.48702 20.1558L6.69671 20.418H14.7081H22.7195L22.9106 20.1863C23.1635 19.8936 23.6261 18.9608 23.7494 18.4974C23.9036 17.9425 23.9344 16.7048 23.8111 16.1805C23.552 15.0952 22.7996 14.1379 21.6093 13.388C21.1653 13.1075 19.9688 12.5161 18.6243 11.9125C16.4164 10.9247 15.2693 10.0529 14.8561 9.05293C14.7883 8.9005 14.7266 8.77246 14.7081 8.77856C14.6896 8.77856 14.5847 8.96757 14.4737 9.19926Z" fill="#047861"/>
<path d="M6.65329 22.442C6.29559 22.5578 5.87004 22.9298 5.67885 23.3017L5.5 23.6492L5.51233 24.7223C5.5185 25.3077 5.55551 25.8503 5.58634 25.9296C5.62335 26.0027 5.72819 26.1125 5.82687 26.1673C5.98722 26.2649 6.69646 26.271 14.7078 26.271C22.7192 26.271 23.4285 26.2649 23.5888 26.1673C23.6875 26.1125 23.7923 26.0027 23.8293 25.9296C23.8602 25.8503 23.8972 25.3077 23.9033 24.7223L23.9157 23.6492L23.7368 23.3017C23.5333 22.9115 23.1139 22.5518 22.7254 22.4359C22.417 22.3444 6.93699 22.3505 6.65329 22.442Z" fill="#047861"/>
</svg>
