<svg width="28" height="28" viewBox="0 0 28 28" fill="none" xmlns="http://www.w3.org/2000/svg">
<path d="M24.0569 10.1499C22.8435 4.74825 18.1302 2.33325 14.0002 2.33325C14.0002 2.33325 14.0002 2.33325 13.9885 2.33325C9.8702 2.33325 5.16853 4.74825 3.94353 10.1383C2.56686 16.1583 6.25353 21.2566 9.5902 24.4766C10.8269 25.6666 12.4135 26.2616 14.0002 26.2616C15.5869 26.2616 17.1735 25.6666 18.3985 24.4766C21.7352 21.2566 25.4219 16.1699 24.0569 10.1499ZM17.2085 13.7083H14.8752V16.0416C14.8752 16.5199 14.4785 16.9166 14.0002 16.9166C13.5219 16.9166 13.1252 16.5199 13.1252 16.0416V13.7083H10.7919C10.3135 13.7083 9.91686 13.3116 9.91686 12.8333C9.91686 12.3549 10.3135 11.9583 10.7919 11.9583H13.1252V9.62492C13.1252 9.14658 13.5219 8.74992 14.0002 8.74992C14.4785 8.74992 14.8752 9.14658 14.8752 9.62492V11.9583H17.2085C17.6869 11.9583 18.0835 12.3549 18.0835 12.8333C18.0835 13.3116 17.6869 13.7083 17.2085 13.7083Z" fill="#047861"/>
</svg>
