<svg width="28" height="28" viewBox="0 0 28 28" fill="none" xmlns="http://www.w3.org/2000/svg">
<path d="M24.0566 10.1499C22.8433 4.74825 18.13 2.33325 14 2.33325C14 2.33325 14 2.33325 13.9883 2.33325C9.86995 2.33325 5.16829 4.74825 3.94329 10.1383C2.56662 16.1583 6.25329 21.2566 9.58995 24.4766C10.8266 25.6666 12.4133 26.2616 14 26.2616C15.5866 26.2616 17.1733 25.6666 18.3983 24.4766C21.735 21.2566 25.4216 16.1699 24.0566 10.1499ZM17.2083 13.7083H14.875V16.0416C14.875 16.5199 14.4783 16.9166 14 16.9166C13.5216 16.9166 13.125 16.5199 13.125 16.0416V13.7083H10.7916C10.3133 13.7083 9.91662 13.3116 9.91662 12.8333C9.91662 12.3549 10.3133 11.9583 10.7916 11.9583H13.125V9.62492C13.125 9.14658 13.5216 8.74992 14 8.74992C14.4783 8.74992 14.875 9.14658 14.875 9.62492V11.9583H17.2083C17.6866 11.9583 18.0833 12.3549 18.0833 12.8333C18.0833 13.3116 17.6866 13.7083 17.2083 13.7083Z" fill="#D4D4D4"/>
</svg>
