<svg width="28" height="28" viewBox="0 0 28 28" fill="none" xmlns="http://www.w3.org/2000/svg">
<path d="M24.3018 9.34494L16.6601 3.23161C15.1668 2.04161 12.8335 2.02994 11.3518 3.21994L3.71012 9.34494C2.61345 10.2199 1.94845 11.9699 2.18179 13.3466L3.65179 22.1433C3.99012 24.1149 5.82179 25.6666 7.81679 25.6666H20.1835C22.1551 25.6666 24.0218 24.0799 24.3601 22.1316L25.8301 13.3349C26.0401 11.9699 25.3751 10.2199 24.3018 9.34494ZM14.8751 20.9999C14.8751 21.4783 14.4785 21.8749 14.0001 21.8749C13.5218 21.8749 13.1251 21.4783 13.1251 20.9999V17.4999C13.1251 17.0216 13.5218 16.6249 14.0001 16.6249C14.4785 16.6249 14.8751 17.0216 14.8751 17.4999V20.9999Z" fill="#D4D4D4"/>
</svg>
