<svg width="24" height="24" viewBox="0 0 24 24" fill="none" xmlns="http://www.w3.org/2000/svg">
<path d="M22.1665 7.01169L14.5249 0.898355C13.0315 -0.291645 10.6982 -0.303312 9.21653 0.886688L1.57487 7.01169C0.478199 7.88669 -0.186801 9.63669 0.0465322 11.0134L1.51653 19.81C1.85487 21.7817 3.68653 23.3334 5.68153 23.3334H18.0482C20.0199 23.3334 21.8865 21.7467 22.2249 19.7984L23.6949 11.0017C23.9049 9.63669 23.2399 7.88669 22.1665 7.01169ZM12.7399 18.6667C12.7399 19.145 12.3432 19.5417 11.8649 19.5417C11.3865 19.5417 10.9899 19.145 10.9899 18.6667V15.1667C10.9899 14.6884 11.3865 14.2917 11.8649 14.2917C12.3432 14.2917 12.7399 14.6884 12.7399 15.1667V18.6667Z" fill="#D4D4D4"/>
</svg>
