<svg width="28" height="28" viewBox="0 0 28 28" fill="none" xmlns="http://www.w3.org/2000/svg">
<path d="M14.0296 2.95599C12.7098 3.30352 11.8648 4.65099 12.1424 5.96187C12.2595 6.5228 12.4877 6.93131 12.9009 7.31543C13.3882 7.77271 13.9309 7.99831 14.597 8.02879C15.7873 8.08367 16.7185 7.52273 17.1996 6.45574C17.4216 5.96797 17.3599 5.9009 16.922 6.12649C16.478 6.35208 15.7564 6.37038 15.3124 6.16917C14.5908 5.83993 14.1899 5.22412 14.1899 4.44369C14.1837 3.92543 14.3133 3.57789 14.6401 3.21207C14.745 3.09012 14.8313 2.96208 14.8313 2.9255C14.8313 2.83404 14.4428 2.84624 14.0296 2.95599Z" fill="#D4D4D4"/>
<path d="M14.4735 9.19926C14.1281 9.91872 13.3264 10.626 12.1176 11.2845C11.8955 11.4064 11.248 11.7174 10.6682 11.9735C8.20746 13.0831 7.54756 13.4672 6.71497 14.2843C6.0859 14.9062 5.78986 15.4122 5.60484 16.1805C5.463 16.7841 5.51233 18.0279 5.70352 18.6193C5.88237 19.1742 6.21541 19.8326 6.48677 20.1558L6.69646 20.418H14.7078H22.7192L22.9104 20.1863C23.1633 19.8936 23.6258 18.9608 23.7492 18.4974C23.9033 17.9425 23.9342 16.7048 23.8108 16.1805C23.5518 15.0952 22.7994 14.1379 21.6091 13.388C21.165 13.1075 19.9686 12.5161 18.6241 11.9125C16.4162 10.9247 15.2691 10.0529 14.8559 9.05293C14.788 8.9005 14.7263 8.77246 14.7078 8.77856C14.6893 8.77856 14.5845 8.96757 14.4735 9.19926Z" fill="#D4D4D4"/>
<path d="M6.65329 22.442C6.29559 22.5578 5.87004 22.9298 5.67885 23.3017L5.5 23.6492L5.51233 24.7223C5.5185 25.3077 5.55551 25.8503 5.58634 25.9296C5.62335 26.0027 5.72819 26.1125 5.82687 26.1673C5.98722 26.2649 6.69646 26.271 14.7078 26.271C22.7192 26.271 23.4285 26.2649 23.5888 26.1673C23.6875 26.1125 23.7923 26.0027 23.8293 25.9296C23.8602 25.8503 23.8972 25.3077 23.9033 24.7223L23.9157 23.6492L23.7368 23.3017C23.5333 22.9115 23.1139 22.5518 22.7254 22.4359C22.417 22.3444 6.93699 22.3505 6.65329 22.442Z" fill="#D4D4D4"/>
</svg>
