<svg width="21" height="24" viewBox="0 0 21 24" fill="none" xmlns="http://www.w3.org/2000/svg">
<path d="M20.4094 7.81667C19.1961 2.415 14.4827 0 10.3527 0C10.3527 0 10.3527 0 10.3411 0C6.22274 0 1.52107 2.415 0.296069 7.805C-1.0806 13.825 2.60607 18.9233 5.94274 22.1433C7.1794 23.3333 8.76607 23.9283 10.3527 23.9283C11.9394 23.9283 13.5261 23.3333 14.7511 22.1433C18.0877 18.9233 21.7744 13.8367 20.4094 7.81667ZM13.5611 11.375H11.2277V13.7083C11.2277 14.1867 10.8311 14.5833 10.3527 14.5833C9.8744 14.5833 9.47774 14.1867 9.47774 13.7083V11.375H7.1444C6.66607 11.375 6.2694 10.9783 6.2694 10.5C6.2694 10.0217 6.66607 9.625 7.1444 9.625H9.47774V7.29167C9.47774 6.81333 9.8744 6.41667 10.3527 6.41667C10.8311 6.41667 11.2277 6.81333 11.2277 7.29167V9.625H13.5611C14.0394 9.625 14.4361 10.0217 14.4361 10.5C14.4361 10.9783 14.0394 11.375 13.5611 11.375Z" fill="#D4D4D4"/>
</svg>
