<svg width="430" height="228" viewBox="0 0 430 228" fill="none" xmlns="http://www.w3.org/2000/svg">
<g clip-path="url(#clip0_1040_2092)">
<path d="M0 0H430V208C430 219.046 421.046 228 410 228H20C8.95431 228 0 219.046 0 208V0Z" fill="url(#paint0_linear_1040_2092)"/>
<path d="M348.945 -18.048C345.656 -11.5864 340.051 -5.97729 331.087 -0.121409C326.848 2.6607 322.725 4.92677 316.263 8.04542C310.727 10.7153 307.878 11.9718 296.575 16.7507C276.679 25.1419 265.098 31.3343 254.837 39.0749C241.218 49.3283 232.555 61.4663 228.942 75.332C226.927 83.0725 226.441 92.6529 227.668 100.842C229.012 109.884 232.138 119.195 236.771 127.945C238.068 130.391 238.068 130.391 238.346 129.74C238.508 129.381 239.342 127.474 240.199 125.5C247.703 108.111 258.59 92.0919 271.908 78.7423C280.895 69.7229 289.65 62.9023 301.092 56.0143C304.196 54.1297 310.449 50.8091 310.588 50.9437C310.635 50.9886 310.032 51.527 309.245 52.1328C302.134 57.6746 290.669 69.1171 283.002 78.3833C271.56 92.2041 261.716 108.695 254.652 125.836C252.15 131.916 248.607 142.484 248.954 142.821C249.047 142.933 252.961 143 257.617 143C266.743 143 269.406 142.798 275.961 141.631C290.831 138.984 304.798 132.724 315.221 124.041C318.023 121.685 322.887 116.839 325.366 113.923C341.672 94.5824 351.956 63.4407 353.786 27.8118C354.55 12.8019 353.23 -5.28177 350.473 -17.7115L349.964 -20L348.945 -18.048Z" fill="url(#paint1_linear_1040_2092)"/>
</g>
<defs>
<linearGradient id="paint0_linear_1040_2092" x1="215" y1="0" x2="215" y2="228" gradientUnits="userSpaceOnUse">
<stop stop-color="#008C6F"/>
<stop offset="1" stop-color="#047861"/>
</linearGradient>
<linearGradient id="paint1_linear_1040_2092" x1="290.5" y1="-20" x2="290.5" y2="143" gradientUnits="userSpaceOnUse">
<stop stop-color="#00B370"/>
<stop offset="0.923502" stop-color="#037F66"/>
</linearGradient>
<clipPath id="clip0_1040_2092">
<path d="M0 0H430V208C430 219.046 421.046 228 410 228H20C8.95431 228 0 219.046 0 208V0Z" fill="white"/>
</clipPath>
</defs>
</svg>
