<svg width="15" height="26" viewBox="0 0 15 26" fill="none" xmlns="http://www.w3.org/2000/svg">
<path d="M6.84121 1.85178C6.52852 1.95871 6.28317 2.16094 6.14366 2.42825C6.03542 2.63281 6.00175 2.7746 6.00175 3.01635C6.00175 3.25577 6.04264 3.43708 6.14848 3.65325C6.24469 3.85316 6.53093 4.12745 6.7426 4.22507L6.89173 4.29248V4.58072C6.89173 4.86895 6.89173 4.86895 6.81957 4.95031C6.73057 5.04794 6.72576 5.13859 6.80513 5.22925L6.86527 5.29666L6.74741 5.39429C6.59827 5.51981 6.55738 5.63371 6.6103 5.78712L6.64638 5.8894L6.56941 5.92659C6.52852 5.94751 6.43471 6.00097 6.36255 6.04979C6.29039 6.09628 6.00897 6.26364 5.73716 6.42171C4.62349 7.06791 4.15204 7.45377 3.83213 7.98376C3.76959 8.09068 3.68781 8.26037 3.65173 8.36264C3.58919 8.53466 3.58438 8.57417 3.58679 8.9089C3.58679 9.23897 3.5916 9.28546 3.65414 9.46677C3.73351 9.6969 3.84897 9.91772 3.99569 10.1246L4.10153 10.2687L3.72149 10.2803L3.34385 10.292L3.33182 10.7476L3.31979 11.2032L3.15142 11.3147C3.06002 11.3775 2.93734 11.4635 2.88202 11.5077L2.77859 11.5867V10.6383C2.77859 9.57137 2.76656 9.64576 2.9638 9.52721C3.08166 9.45747 3.11534 9.40634 3.11534 9.29476C3.11534 9.18319 3.02634 9.1181 2.8724 9.1181H2.75454V7.71179V6.30548H2.83632C2.89645 6.30548 2.93253 6.28921 2.96861 6.24504C3.03115 6.16834 3.03115 6.14044 2.96861 6.06374C2.93013 6.01492 2.89886 6.0033 2.81467 6.0033H2.70884L2.79062 5.88708C2.89405 5.73831 2.9157 5.60581 2.86518 5.44078C2.81948 5.28736 2.73289 5.17346 2.57414 5.06421C2.50919 5.01772 2.40817 4.95031 2.35285 4.91079C2.1965 4.80387 2.17004 4.74808 2.15801 4.51331C2.1508 4.39941 2.13877 4.30643 2.12674 4.30643C2.11472 4.30643 2.1051 4.39476 2.1051 4.50401C2.1051 4.7597 2.07623 4.81084 1.85735 4.95496C1.55187 5.15254 1.42438 5.33617 1.42438 5.57327C1.42198 5.71739 1.46768 5.84059 1.55187 5.92892C1.61681 5.99633 1.61441 6.0033 1.50376 6.0033C1.39552 6.0033 1.31133 6.06606 1.31133 6.14277C1.31133 6.21018 1.41717 6.30548 1.49173 6.30548H1.55187V7.70947V9.11113L1.42679 9.12275C1.27525 9.13902 1.21512 9.19713 1.21512 9.33428C1.21512 9.41098 1.22955 9.43888 1.30171 9.49931C1.34982 9.53883 1.41957 9.59927 1.45806 9.63413L1.52781 9.69457V11.6495V13.6043L1.39792 13.8554C1.24398 14.1552 1.0275 14.6899 0.928883 15.0223C0.849507 15.2896 0.702781 15.966 0.714807 16.0032C0.719618 16.0172 0.76532 15.9358 0.813427 15.8219C0.943315 15.5244 1.26082 14.9851 1.49414 14.662C1.7924 14.2459 1.98483 14.0251 2.35766 13.6532C3.17788 12.8419 4.11596 12.2073 5.39801 11.596C6.03783 11.2915 6.52852 11.0893 7.56041 10.708C8.82803 10.2385 9.57128 9.95259 9.92246 9.79685C10.2087 9.669 10.2255 9.65738 10.276 9.55975C10.3506 9.41098 10.4059 9.18086 10.4204 8.96236C10.4564 8.43238 10.1389 7.80942 9.5833 7.3236C9.28745 7.06326 8.98919 6.85638 8.41431 6.51701C7.38963 5.908 7.35115 5.88243 7.3752 5.82199C7.43533 5.6709 7.35355 5.45705 7.20923 5.37337C7.08896 5.30363 7.09137 5.30596 7.13467 5.27574C7.2405 5.19903 7.25493 5.06189 7.17075 4.96426C7.11783 4.90382 7.10821 4.8643 7.09378 4.63883L7.07694 4.38081H7.31507C7.736 4.38546 8.01502 4.28319 8.30366 4.0182C8.49609 3.84386 8.52976 3.78575 8.39025 3.87408C8.16415 4.01587 7.80335 4.07631 7.52193 4.0182C6.88451 3.89035 6.45877 3.39756 6.45877 2.79552C6.45877 2.40733 6.63195 2.07493 6.95186 1.84946C7.04326 1.78437 7.03364 1.78437 6.84121 1.85178ZM2.22296 6.52631C2.26144 6.5449 2.31917 6.59139 2.35525 6.63091C2.41779 6.70297 2.41779 6.70994 2.41779 7.07488V7.44448H2.1532H1.88861V7.06559C1.88861 6.65415 1.89583 6.63323 2.04496 6.53793C2.13155 6.48214 2.13636 6.48214 2.22296 6.52631ZM5.87186 7.6653C5.94402 7.73504 6.00175 7.80245 6.00175 7.81639C6.00175 7.83034 5.98491 7.86521 5.96326 7.89775C5.92959 7.94656 5.92959 8.01862 5.95364 8.54163C5.97048 8.95306 5.97048 9.18319 5.95364 9.30406C5.90794 9.62949 5.73476 9.87123 5.45333 10.0037C5.35712 10.0502 5.3042 10.0595 5.08772 10.0595C4.84959 10.0595 4.82794 10.0549 4.70287 9.98745C4.60184 9.93167 4.55614 9.8875 4.51044 9.8015C4.4022 9.59927 4.43587 9.40634 4.61387 9.20178C4.72932 9.07161 4.76059 9.0995 4.68603 9.26687C4.59462 9.47607 4.6307 9.60159 4.81111 9.69457C4.86162 9.72014 4.9458 9.73176 5.08772 9.73176C5.33307 9.73176 5.49903 9.67133 5.62652 9.53651C5.754 9.40169 5.77324 9.31336 5.77084 8.92052C5.77084 8.55093 5.72514 8.24177 5.63854 7.98608C5.59765 7.86288 5.59525 7.82801 5.6169 7.74201C5.64576 7.64206 5.70108 7.53745 5.72754 7.53745C5.73716 7.53745 5.7997 7.59557 5.87186 7.6653ZM7.57003 8.31615C7.58928 8.87171 7.61573 9.07394 7.68789 9.23432C7.80095 9.47839 7.98135 9.56208 8.30126 9.51326C8.54901 9.47607 8.84246 9.39239 8.83284 9.36449C8.82803 9.35055 8.75106 9.30871 8.65965 9.27384C8.46963 9.19713 8.28683 9.18551 8.17137 9.24362C8.09921 9.28081 8.0944 9.28081 8.0944 9.2413C8.0968 9.16691 8.20264 8.9949 8.29164 8.92517C8.34696 8.881 8.41671 8.85311 8.48406 8.84614C8.57306 8.83684 8.61636 8.84846 8.80397 8.94609C9.26099 9.18086 9.33796 9.2134 9.49671 9.24362C9.58812 9.26222 9.66749 9.28314 9.67471 9.28779C9.67952 9.29476 9.66749 9.35752 9.64344 9.42958L9.60014 9.55975H9.43417C9.29707 9.55975 9.20086 9.58067 8.87854 9.68527C8.40228 9.83869 8.24353 9.87123 8.06553 9.85264C7.61814 9.80847 7.50028 9.59229 7.38482 8.59509C7.33431 8.15577 7.33671 7.99305 7.40166 7.88148C7.44014 7.81639 7.46901 7.79315 7.50509 7.7978C7.55079 7.80477 7.5532 7.82569 7.57003 8.31615ZM6.43231 8.21155C6.62233 8.36962 6.69208 8.45097 6.77627 8.61834C6.85324 8.7671 6.94705 9.03907 6.93502 9.07626C6.92781 9.09253 6.85084 9.00885 6.76184 8.8903C6.5646 8.62996 6.52852 8.60671 6.4299 8.67645C6.34571 8.73689 6.31444 8.72759 6.23507 8.62531C6.15569 8.52071 6.12202 8.41378 6.12202 8.26037C6.12202 8.02792 6.19658 8.0163 6.43231 8.21155ZM7.31266 8.29291C7.3319 8.44168 7.29342 8.7764 7.22607 9.05301C7.10099 9.56208 6.76184 9.94329 6.39382 9.9921C6.24709 10.0107 6.04505 9.95724 5.94162 9.87588L5.86946 9.81777L6.05467 9.81544C6.33369 9.81544 6.47801 9.75501 6.68968 9.55045C6.97591 9.27152 7.1034 8.99955 7.16834 8.51374C7.20683 8.22783 7.23569 8.1302 7.27658 8.15344C7.28861 8.16042 7.30545 8.22318 7.31266 8.29291Z" fill="white"/>
<path d="M7.50501 2.5863C7.48096 2.66301 7.44969 2.72577 7.43526 2.72809C7.42082 2.72809 7.35588 2.72809 7.28853 2.72809C7.0961 2.72345 7.08648 2.75134 7.23802 2.86291C7.31258 2.91638 7.37272 2.97449 7.37272 2.99076C7.37272 3.00703 7.35107 3.08142 7.32461 3.1558C7.29815 3.23018 7.28131 3.29527 7.28613 3.30224C7.29334 3.30689 7.35588 3.26737 7.43045 3.21391C7.57958 3.10466 7.59641 3.10466 7.772 3.22553C7.83454 3.2697 7.88987 3.30224 7.89468 3.29759C7.89708 3.29527 7.87303 3.22088 7.83695 3.13255L7.77441 2.97216L7.89227 2.87221C7.95722 2.81875 8.01735 2.77226 8.02938 2.77226C8.039 2.77226 8.04621 2.76296 8.04621 2.74901C8.04621 2.73739 7.96443 2.72577 7.86341 2.72112L7.6782 2.71415L7.63009 2.57933C7.60123 2.50727 7.57236 2.44683 7.56515 2.44683C7.55552 2.44683 7.52907 2.50959 7.50501 2.5863Z" fill="white"/>
<path d="M13.4128 7.64668C13.0712 8.31613 12.4891 8.89725 11.5583 9.50394C11.1181 9.79218 10.6899 10.0269 10.0188 10.3501C9.44397 10.6267 9.14811 10.7568 7.97431 11.2519C5.90812 12.1213 4.70545 12.7629 3.63988 13.5648C2.22554 14.6271 1.32594 15.8846 0.950707 17.3212C0.741442 18.1231 0.69093 19.1157 0.818413 19.9641C0.957923 20.9009 1.28264 21.8655 1.76371 22.7721C1.89841 23.0254 1.89841 23.0254 1.92728 22.958C1.94411 22.9208 2.03071 22.7232 2.1197 22.5187C2.89903 20.7172 4.02955 19.0575 5.41262 17.6745C6.34589 16.74 7.25511 16.0334 8.44335 15.3198C8.76566 15.1245 9.41511 14.7805 9.42954 14.7945C9.43435 14.7991 9.37181 14.8549 9.29003 14.9177C8.55159 15.4918 7.36094 16.6773 6.56478 17.6373C5.37654 19.0692 4.35427 20.7777 3.62064 22.5536C3.36086 23.1835 2.99284 24.2783 3.02892 24.3132C3.03854 24.3248 3.44505 24.3318 3.92852 24.3318C4.87623 24.3318 5.15284 24.3109 5.83355 24.19C7.37778 23.9157 8.8282 23.2672 9.91061 22.3676C10.2017 22.1235 10.7068 21.6214 10.9641 21.3193C12.6575 19.3156 13.7255 16.0892 13.9155 12.3979C13.9949 10.8428 13.8578 8.96931 13.5715 7.68155L13.5186 7.44445L13.4128 7.64668Z" fill="white"/>
</svg>
