<svg width="430" height="222" viewBox="0 0 430 222" fill="none" xmlns="http://www.w3.org/2000/svg">
<path d="M166.559 180.163L166.559 167.954L166.508 167.954C163.676 165.237 162.107 160.494 162.068 154.638C162.03 144.611 166.316 136.996 177.262 127.696C181.624 123.984 183.079 122.912 192.952 116.177C204.816 108.063 211.054 103.203 213.312 100.256C214.231 98.9932 214.269 98.8401 213.695 98.4957C212.623 97.9216 211.82 95.9699 212.088 94.6304C212.394 93.3292 214.039 91.3009 214.805 91.3009C215.034 91.3009 215.379 90.8416 215.532 90.2676C215.723 89.5022 215.57 89.0812 215.034 88.6602C214.001 87.8183 213.312 86.4023 213.618 85.6369C213.886 84.9863 216.106 68.7597 216.106 67.4585C216.106 67.0758 215.8 66.8079 215.417 66.8079C214.039 66.8079 210.786 64.8178 208.873 62.7895C205.926 59.6514 205.199 57.8144 205.199 53.4133C205.199 50.2751 205.352 49.4715 206.194 47.6345C208.069 43.6926 211.552 40.8223 215.417 40.0569C217.675 39.5977 219.168 39.5594 219.168 39.9804C219.168 40.1717 218.785 40.4014 218.287 40.5545C216.68 40.9372 213.925 43.7692 212.7 46.2185C210.633 50.3517 211.399 54.9441 214.767 58.6946C217.101 61.297 219.665 62.4068 223.377 62.3685C225.75 62.3685 226.63 62.1772 228.352 61.297C229.501 60.7229 230.878 59.881 231.376 59.4217L232.294 58.5798L231.376 60.2637C229.233 64.129 224.717 66.8462 219.856 67.1141C218.02 67.2289 216.871 67.4585 216.871 67.7264C216.871 68.1091 218.44 81.0827 219.015 85.5986C219.244 87.1677 219.168 87.4356 218.249 88.1245C216.795 89.2726 216.871 90.9947 218.402 91.5688C220.698 92.4107 221.387 96.3526 219.55 97.9982C219.129 98.3809 218.785 98.8784 218.785 99.108C218.823 99.8352 221.923 103.012 225.712 106.111C229.654 109.326 230.189 109.747 240.216 116.636C252.654 125.17 256.826 128.576 261.916 134.278C267.312 140.249 269.608 145.76 269.952 153.299C270.144 156.973 270.029 158.236 269.378 160.838C268.536 164.129 267.681 166.156 265.767 167.954V174.078V180.201L273.626 180.163L280.208 180.086L276.267 179.703L272.363 179.359L271.406 177.752C268.153 172.164 268.077 165.199 271.253 159.612C273.664 155.402 278.257 151.307 291.422 141.624C294.368 139.443 297.354 137.07 298.042 136.343C299.191 135.157 299.229 135.004 298.693 134.391C297.277 132.746 297.583 130.335 299.344 129.684C300.53 129.225 300.568 128.651 299.458 127.503L298.616 126.584L299.267 122.681C299.65 120.538 300.033 117.744 300.147 116.443L300.415 114.108L298.616 113.228C297.621 112.769 296.359 111.774 295.784 111.008C294.866 109.822 293.402 105.306 295.823 102.589C298.209 99.9102 298.866 99.8349 301.12 99.5767L301.219 99.5654L302.788 99.4123L301.334 100.216C299.382 101.288 298.387 103.01 298.387 105.306C298.387 108.942 300.415 110.932 304.166 110.932C305.429 110.932 306.577 110.702 307.036 110.358C308.222 109.439 308.414 109.707 307.495 110.97C306.347 112.501 304.663 113.534 302.673 113.84C301.104 114.07 301.066 114.146 301.066 115.562C301.066 116.366 301.41 118.815 301.831 120.959C302.75 125.666 302.788 126.776 302.023 127.388C301.142 128.115 301.334 128.88 302.597 130.067C303.898 131.253 304.089 132.631 303.171 134.047C302.635 134.851 302.635 135.004 303.63 135.999C305.161 137.53 309.141 140.438 315.991 144.992C329.08 153.68 333.634 158.272 335.586 164.625C336.657 168.261 336.466 173.006 335.05 175.991C333.481 179.321 333.328 179.436 330.343 179.742L327.664 180.048L331.108 180.316C333.022 180.431 337.231 180.469 340.484 180.354L346.416 180.163L346.531 156.933L346.607 133.664L344.694 131.291C342.934 129.072 342.78 128.766 342.78 126.814C342.78 124.9 342.895 124.556 344.12 123.37C345.421 122.068 346.722 121.647 347.181 122.413C347.296 122.642 347.564 122.795 347.794 122.795C347.985 122.795 348.138 112.348 348.138 95.6618C348.138 70.8244 348.1 68.4899 347.488 68.0307C347.143 67.7245 346.378 66.806 345.766 66.0023C344.885 64.7777 344.694 64.1271 344.694 62.3284C344.694 60.7211 344.847 60.0704 345.268 59.8791C345.574 59.7643 345.842 59.4198 345.842 59.1137C345.842 58.7693 346.186 58.3483 346.569 58.1187C347.373 57.736 348.521 57.9656 348.521 58.5396C348.521 58.731 348.865 58.8841 349.286 58.8841C350.013 58.8841 350.052 58.6162 350.052 50.0436V41.2032L349.133 40.476C348.215 39.7489 348.215 39.5958 348.406 35.9984C348.712 29.9517 350.358 26.0482 354.606 21.2261C355.907 19.7718 356.94 18.4323 356.94 18.241C356.94 18.0879 356.749 17.5904 356.481 17.2077C356.137 16.6336 356.175 16.0596 356.673 14.4905C357.476 11.9647 357.553 8.74997 356.787 8.74997C355.754 8.74997 354.261 6.492 354.261 4.92293C354.261 2.39708 355.524 0.713196 357.859 0.100876C359.084 -0.205276 359.198 0.368759 358.012 0.904541C355.792 1.8613 355.869 5.49698 358.089 6.6451C359.466 7.37224 360.308 7.37224 361.648 6.68336C362.222 6.37721 362.681 6.26237 362.681 6.41547C362.681 7.02779 360.5 8.74994 359.428 8.97957L358.28 9.17093L358.395 11.6585C358.471 13.0362 358.777 14.6053 359.084 15.1794C359.505 16.0596 359.505 16.3275 359.045 17.0546C358.739 17.5139 358.471 18.0879 358.471 18.2793C358.471 18.5089 359.581 19.8866 360.921 21.4174C365.13 26.0864 367.159 30.8702 367.312 36.4959C367.388 38.9835 367.273 39.5193 366.546 40.2464C365.781 41.0884 365.743 41.4711 365.743 50.0054C365.743 57.6594 365.819 58.8841 366.317 58.8841C366.623 58.8841 366.891 58.6927 366.891 58.5014C366.891 58.2717 367.388 58.1187 368.001 58.1187C370.22 58.1187 371.942 62.3667 370.641 64.7394C370.412 65.1987 369.531 66.3851 368.728 67.3418L367.273 69.064V96.0063C367.273 116.978 367.388 122.834 367.733 122.489C368.575 121.647 370.335 121.915 370.679 122.949C370.871 123.446 371.33 123.944 371.636 124.058C372.095 124.25 372.249 124.862 372.249 126.776C372.249 129.11 372.172 129.301 370.526 131.291L368.804 133.396V159.879V186.324L370.335 184.832C371.177 184.028 373.014 182.727 374.43 181.961C375.884 181.196 377.3 180.354 377.645 180.124C378.18 179.78 379.061 180.086 382.39 181.732C388.934 184.985 391.384 187.358 391.384 190.496C391.384 191.491 391.537 191.682 392.34 191.682H393.297V187.549C393.297 183.798 393.221 183.301 392.494 182.65C391.039 181.349 390.657 180.201 391.154 178.479C391.537 177.178 391.766 176.948 392.647 176.948L393.68 176.986V159.037V141.089L392.532 139.749C391.231 138.295 391.039 136.802 391.996 135.004C392.494 134.009 392.723 133.894 393.718 134.085L394.828 134.353V129.225C394.828 126.393 394.675 123.944 394.445 123.714C394.254 123.523 394.216 122.183 394.407 120.231C394.751 116.825 395.402 115.448 397.66 113.266C398.77 112.195 398.961 111.812 398.77 110.74C398.655 110.013 398.77 109.401 398.999 109.248C399.229 109.095 399.42 108.329 399.42 107.564C399.42 106.378 399.229 106.033 398.272 105.497C397.048 104.808 395.976 102.818 395.976 101.288C395.976 99.9098 397.392 97.9198 398.846 97.3075C400.377 96.6569 400.951 96.6186 400.951 97.1544C400.951 97.3457 400.76 97.5371 400.492 97.5371C400.262 97.5371 399.65 97.9198 399.153 98.379C398.004 99.4506 397.966 101.555 399.114 102.78C400.109 103.852 402.635 104.005 403.707 103.01C404.625 102.206 404.587 102.78 403.63 104.349C403.133 105.153 402.444 105.689 401.678 105.842L400.492 106.071L400.722 108.98C400.99 111.659 401.104 112.003 402.444 113.419C403.286 114.261 404.243 115.562 404.625 116.29C405.429 117.897 405.85 123.331 405.199 123.714C404.931 123.905 404.778 125.742 404.778 129.148V134.315L406.079 134.085C407.266 133.856 407.419 133.932 407.993 135.08C408.873 136.879 408.758 137.912 407.457 139.367L406.309 140.706V158.961C406.309 173.772 406.386 177.139 406.807 176.833C407.381 176.336 407.955 176.642 408.567 177.79C409.332 179.244 409.065 180.507 407.649 182.076L406.309 183.53V198.686V213.802L407.381 214.032C409.332 214.453 453.917 220.959 456.635 221.265C457.476 221.342 455.333 221.456 451.851 221.495C441.365 221.686 -25.8392 221.609 -25.9923 221.418C-26.1071 221.342 -24.9207 221.15 -23.3899 220.997C-17.6111 220.461 23.185 214.3 25.2516 213.649C25.864 213.458 25.9022 212.386 25.9022 198.494V183.53L24.5628 182.076C23.0702 180.431 22.8789 179.282 23.7974 177.522C24.4479 176.259 24.7541 176.144 25.443 176.833C25.7109 177.101 25.9405 177.139 25.9405 176.948C25.9788 176.718 25.9788 168.452 25.9022 158.578L25.8257 140.591L24.7158 139.443C23.4529 138.104 23.2998 136.879 24.2183 135.08C24.7924 133.932 24.9455 133.856 26.1318 134.085L27.433 134.315V129.378C27.433 125.972 27.28 124.25 26.9355 123.791C26.2849 122.91 26.7442 118.012 27.6244 116.29C27.9688 115.601 28.9638 114.299 29.8058 113.381C30.8391 112.271 31.4131 111.238 31.4897 110.434C31.5663 109.783 31.7194 108.482 31.8724 107.602C32.0637 106.263 31.9872 105.995 31.3749 105.803C28.9256 105 27.7392 100.981 29.3848 98.9148C30.1885 97.8815 32.1786 96.7717 33.2501 96.7717C33.518 96.7717 33.097 97.3075 32.2934 97.9581C31.107 98.9531 30.8774 99.3741 30.8774 100.637C30.8774 102.665 31.9107 103.66 33.9773 103.66C34.8192 103.66 35.8525 103.469 36.2735 103.278C37.1537 102.78 37.192 103.01 36.3883 104.234C36.0821 104.732 35.1254 105.421 34.2451 105.727C32.7526 106.339 32.7143 106.416 32.9822 107.794C33.097 108.559 33.2501 109.745 33.3267 110.434C33.4032 111.161 34.0538 112.348 34.9723 113.496C35.8142 114.491 36.8093 115.945 37.192 116.672C38.0339 118.28 38.4549 123.331 37.8043 123.714C37.5364 123.905 37.3833 125.742 37.3833 129.148V134.315L38.6845 134.085C39.8709 133.856 40.024 133.932 40.598 135.08C41.5165 136.879 41.3634 137.797 39.8709 139.52L38.5314 141.089V159.114C38.5314 175.762 38.6462 178.096 39.4882 176.757C40.1005 175.762 41.593 177.79 41.593 179.627C41.593 180.163 41.019 181.234 40.2536 182.076L38.9141 183.53V187.625V191.682H40.1005C40.7511 191.682 41.1721 191.529 41.019 191.299C40.9042 191.108 40.9807 190.19 41.2103 189.309C41.8609 186.86 44.425 184.64 49.6298 181.961L54.0309 179.703L57.2839 181.579C59.0826 182.574 61.264 184.105 62.1825 184.908L63.7898 186.439V159.956V133.473L61.8763 131.1C60.0776 128.88 59.9628 128.613 59.9628 126.546C59.9628 124.786 60.1159 124.288 60.6899 123.944C61.1109 123.752 61.5701 123.216 61.685 122.795C61.9528 121.992 63.9046 121.686 64.3639 122.413C64.4787 122.604 64.7466 122.795 64.9762 122.795C65.1676 122.795 65.3206 112.424 65.3206 95.8149V68.8344L63.5985 66.6147C62.0294 64.6246 61.8763 64.2419 61.8763 62.2519C61.8763 60.9124 62.0677 59.9557 62.3738 59.7643C62.6035 59.6112 63.0244 59.1137 63.254 58.6927C63.7898 57.736 65.0527 57.5063 65.7033 58.31C65.9712 58.6162 66.4305 58.8841 66.6984 58.8841C67.1576 58.8841 67.2342 57.2767 67.2342 50.0436V41.1649L66.3157 40.323C65.3972 39.481 65.3589 39.2897 65.5503 35.8836C65.8947 29.569 67.2724 26.2778 71.6735 21.1113C73.9315 18.4323 73.9315 18.3941 73.3191 17.0546C72.9747 16.3275 73.013 15.9065 73.4722 15.2176C73.7784 14.7201 74.1611 13.151 74.2759 11.6968C74.5055 9.2092 74.5055 9.09439 73.6253 8.78824C72.171 8.21417 71.0612 6.53027 71.0612 4.84637C71.0612 2.89459 71.9797 1.55515 73.9315 0.674927C76.1511 -0.358368 76.419 -0.205276 74.7734 1.13417C73.587 2.1292 73.3574 2.5119 73.3574 3.81308C73.3574 5.87968 74.6586 7.21915 76.6869 7.21915C77.4906 7.21915 78.5622 6.95125 79.0214 6.60683C80.2078 5.76488 80.0547 6.492 78.7918 7.71666C78.2177 8.29073 77.1462 8.86476 76.4573 8.97957L75.1561 9.24748L75.424 11.5437C75.5388 12.8449 75.845 14.4522 76.1129 15.1411C76.4573 16.1361 76.4573 16.5571 76.0363 17.3225C76.0099 17.3717 75.9845 17.4182 75.9604 17.4625C75.8349 17.6921 75.7425 17.8611 75.7196 18.039C75.6556 18.5354 76.132 19.1014 77.9369 21.246C78.0738 21.4087 78.2183 21.5804 78.3708 21.7619C82.4275 26.5457 83.8817 30.1431 84.1879 36.075C84.3793 39.2897 84.341 39.5193 83.4608 40.323C82.5423 41.1649 82.5423 41.1649 82.5423 50.0436C82.5423 58.6162 82.5805 58.8841 83.3077 58.8841C83.7287 58.8841 84.0731 58.731 84.0731 58.5396C84.0731 57.9656 85.2212 57.736 86.0249 58.1187C86.4076 58.3483 86.752 58.7693 86.752 59.0372C86.752 59.3433 87.0199 59.7643 87.3261 60.0322C87.6705 60.3383 87.9001 61.1803 87.9001 62.3284C87.9001 63.8975 87.6322 64.5098 86.178 66.4999L84.4558 68.8344V95.8915C84.4558 116.94 84.5706 122.834 84.915 122.489C85.6804 121.724 87.5557 121.915 87.7853 122.795C87.9001 123.216 88.1297 123.561 88.2828 123.561C89.2013 123.561 89.8136 124.9 89.8136 126.776C89.8136 128.651 89.6606 129.034 87.9001 131.215L85.9866 133.626V156.894C85.9866 169.677 86.1014 180.201 86.2928 180.278C86.4458 180.354 90.426 180.316 95.1715 180.201C99.917 180.086 102.826 179.933 101.639 179.895C99.3047 179.818 98.8454 179.474 97.659 177.139C96.5875 175.073 95.9369 172.202 95.9369 169.677C95.9752 161.295 100.759 155.287 115.072 145.566C122.841 140.285 126.324 137.836 127.893 136.458C129.385 135.157 129.385 135.119 128.773 134.391C127.663 133.167 127.893 131.138 129.232 129.914L130.38 128.919C130.38 128.919 129.176 127.815 128.749 126.894C127.74 124.718 130.38 115.983 130.38 115.983C130.38 115.983 130.725 114.912 130.151 114.567C126.936 112.616 125.673 111.161 125.252 108.827C124.487 104.885 128.122 100.56 132.179 100.599L133.633 100.637L132.217 101.364C130.533 102.283 129.385 103.813 129.041 105.65C128.658 107.602 129.921 110.281 131.605 111.161C133.212 112.042 136.503 112.042 137.843 111.161C139.259 110.243 139.029 111.2 137.498 112.654C136.236 113.802 133.748 114.759 131.911 114.759C131.222 114.759 131.146 114.95 131.299 115.983C131.661 118.349 131.956 120.14 132.183 121.516C132.819 125.373 132.919 125.982 132.463 126.894C131.736 127.966 131.225 128.919 131.225 128.919C132.435 129.914 134.939 132.465 132.676 134.851C132.676 135.578 136.274 138.792 140.866 142.122C155.447 152.761 158.892 155.976 161.341 161.066C162.68 163.898 162.719 164.013 162.719 168.72C162.719 173.427 162.68 173.58 161.417 176.106C160.69 177.522 159.925 178.823 159.695 179.015C159.466 179.206 157.629 179.55 155.639 179.742C152.007 180.086 152.041 180.086 158.639 180.162L158.662 180.163H166.559ZM74.1228 53.5645C74.1228 49.1634 74.0463 48.5511 73.3191 47.6326C72.4007 46.4462 71.7883 46.3697 70.9464 47.3264C70.4106 47.9005 70.2958 48.9338 70.2958 53.2583V58.5014H72.2093H74.1228V53.5645ZM79.4807 53.2201C79.4807 48.5511 79.4041 47.824 78.7918 47.2882C77.8733 46.4462 77.4523 46.4845 76.6869 47.3264C76.1511 47.9005 76.0363 48.9338 76.0363 53.2583V58.5014H77.7585H79.4807V53.2201ZM356.94 53.3349C356.94 48.6659 356.864 48.0919 356.175 47.403C355.257 46.4845 355.065 46.4845 353.955 47.2499C353.152 47.7857 353.113 48.0918 353.113 53.1818V58.5014H355.027H356.94V53.3349ZM362.681 53.2201C362.681 48.5511 362.604 47.824 361.992 47.2882C361.112 46.4845 360.767 46.4845 359.696 47.2499C358.892 47.7857 358.854 48.0918 358.854 53.1818V58.5014H360.767H362.681V53.2201ZM31.4514 131.291C31.2983 129.684 31.107 128.23 30.9922 128.039C30.8008 127.694 29.9589 127.694 29.6144 128.039C29.4614 128.153 29.3465 129.646 29.3465 131.291V134.277H30.5329H31.7193L31.4514 131.291ZM34.5896 134.277C35.4698 134.277 35.5081 134.238 35.3933 131.138C35.3167 128.536 35.1636 127.962 34.6278 127.847C33.5563 127.656 33.1353 129.072 33.4032 131.789C33.6328 134.085 33.7476 134.277 34.5896 134.277ZM399.038 131.483C399.038 129.837 398.846 128.498 398.578 128.23C397.277 126.929 396.742 127.962 396.742 131.636V134.277H397.89H399.038V131.483ZM402.865 131.521C402.865 129.837 402.673 128.498 402.406 128.23C401.104 126.929 400.454 128.192 400.645 131.789C400.76 133.97 400.798 134.085 401.831 134.2L402.865 134.315V131.521ZM226.286 186.554C224.793 183.53 222.535 181.311 219.206 179.665C217.713 178.9 216.259 178.287 215.991 178.287C215.072 178.287 213.552 178.89 209.838 180.747C206.124 182.604 204.433 189.577 204.433 189.577L204.318 201.709L204.204 213.879H215.914H227.625L227.51 201.326L227.395 188.812L226.286 186.554ZM193.143 192.409C192.148 189.194 190.694 187.511 187.479 185.827C185.987 185.023 184.724 184.411 184.686 184.411C183.844 184.449 179.979 187.09 178.716 188.429C176.113 191.261 175.922 192.294 175.922 203.814V213.879H184.915H193.909V204.35C193.909 195.968 193.832 194.552 193.143 192.409ZM254.682 190.687C254.108 189.615 253.113 188.238 252.424 187.702C251.735 187.128 250.243 186.171 249.018 185.559L246.875 184.487L244.923 185.521C241.517 187.396 240.675 188.199 239.489 190.649C238.456 192.792 238.341 193.442 238.226 197.423C238.188 199.834 238.149 204.541 238.226 207.832L238.302 213.879H247.143H255.945L255.83 203.24L255.715 192.639L254.682 190.687ZM109.714 206.187C109.714 197.499 109.523 196.849 106.499 195.088C105.428 194.476 104.395 193.978 104.165 193.978C103.093 194.017 99.917 196.236 99.1899 197.423C98.501 198.647 98.4245 199.413 98.4245 206.033V213.305L104.088 213.42L109.714 213.534V206.187ZM125.749 198.303C125.214 196.849 123.989 195.586 122.267 194.705C121.463 194.323 120.698 193.978 120.545 193.978C119.971 194.017 117.942 195.203 117.062 196.045C115.11 197.805 114.919 198.647 114.881 206.225V213.305L120.545 213.42L126.17 213.534V206.454C126.17 202.359 125.979 198.915 125.749 198.303ZM140.637 196.045C140.177 195.586 139.221 194.935 138.532 194.591C137.039 193.863 137.001 193.863 135.547 194.629C131.911 196.542 131.528 197.614 131.528 206.416V213.496H137.077H142.627V206.225C142.627 198.456 142.474 197.69 140.637 196.045ZM156.557 195.93C155.945 195.433 154.873 194.82 154.146 194.514C153.457 194.208 152.845 193.978 152.807 193.978C152.233 194.17 150.242 195.433 149.592 196.045C147.755 197.69 147.602 198.456 147.602 206.225V213.496H153.151H158.7V206.416C158.7 198.609 158.471 197.423 156.557 195.93ZM283.155 197.116C282.658 196.428 281.395 195.433 280.362 194.935C279.366 194.399 278.448 193.978 278.41 193.978C278.333 193.978 277.453 194.476 276.381 195.088C273.128 196.963 272.937 197.576 272.937 206.033V213.305H278.486H284.035V205.842C284.035 198.647 283.997 198.341 283.155 197.116ZM299.037 197.04C298.578 196.313 297.66 195.433 297.047 195.088C296.397 194.744 295.555 194.323 295.096 194.208C293.986 193.863 291.115 195.471 290.082 197.04C289.24 198.226 289.202 198.647 289.202 205.88V213.496H294.56H299.918V205.88C299.918 198.647 299.879 198.226 299.037 197.04ZM314.384 196.045C313.925 195.586 312.968 194.935 312.279 194.591C310.672 193.787 310.633 193.787 308.49 195.203C305.505 197.231 305.275 197.958 305.275 206.301V213.496H310.825H316.374V206.225C316.374 198.456 316.221 197.69 314.384 196.045ZM332.907 211.085C333.289 198.111 333.06 197.078 329.615 195.126C328.544 194.476 327.587 193.978 327.472 193.978C326.822 194.017 324.449 195.279 323.722 196.007C321.885 197.729 321.732 198.456 321.732 206.225V213.496H327.281H332.83L332.907 211.085Z" fill="url(#paint0_linear_3007_3113)"/>
<defs>
<linearGradient id="paint0_linear_3007_3113" x1="215.409" y1="-6.10352e-05" x2="215.409" y2="221.605" gradientUnits="userSpaceOnUse">
<stop stop-color="white"/>
<stop offset="0.87188" stop-color="#E8F6F2"/>
</linearGradient>
</defs>
</svg>
