<svg width="430" height="489" viewBox="0 0 430 489" fill="none" xmlns="http://www.w3.org/2000/svg">
<g filter="url(#filter0_f_3007_3110)">
<path d="M-137 387C-137 345.896 -127.895 305.195 -110.206 267.22C-92.5159 229.245 -66.5878 194.74 -33.9015 165.675C-1.21529 136.611 37.5889 113.555 80.2955 97.8257C123.002 82.096 168.775 74 215 74C261.225 74 306.998 82.096 349.705 97.8257C392.411 113.555 431.216 136.611 463.902 165.676C496.588 194.74 522.516 229.245 540.206 267.22C557.895 305.195 567 345.896 567 387L256.906 387C256.906 382.106 255.822 377.261 253.716 372.74C251.61 368.219 248.523 364.111 244.632 360.651C240.741 357.191 236.121 354.446 231.037 352.573C225.952 350.701 220.503 349.737 215 349.737C209.497 349.737 204.048 350.701 198.963 352.573C193.879 354.446 189.259 357.191 185.368 360.651C181.477 364.111 178.39 368.219 176.284 372.74C174.178 377.261 173.094 382.106 173.094 387L-137 387Z" fill="url(#paint0_linear_3007_3110)"/>
</g>
<path fill-rule="evenodd" clip-rule="evenodd" d="M102.373 99.0795C102.365 99.0941 102.358 99.1084 102.35 99.1224C102.353 99.1168 102.356 99.1111 102.359 99.1054C102.364 99.0969 102.369 99.0882 102.373 99.0795ZM147.773 183.152C147.773 183.151 147.773 183.154 147.773 183.152C147.773 183.153 147.773 183.152 147.773 183.152Z" fill="url(#paint1_linear_3007_3110)"/>
<path d="M166.559 355.163L166.559 342.954L166.508 342.954C163.676 340.237 162.107 335.494 162.068 329.638C162.03 319.611 166.316 311.996 177.262 302.696C181.624 298.984 183.079 297.912 192.952 291.177C204.816 283.063 211.054 278.203 213.312 275.256C214.231 273.993 214.269 273.84 213.695 273.496C212.623 272.922 211.82 270.97 212.088 269.63C212.394 268.329 214.039 266.301 214.805 266.301C215.034 266.301 215.379 265.842 215.532 265.268C215.723 264.502 215.57 264.081 215.034 263.66C214.001 262.818 213.312 261.402 213.618 260.637C213.886 259.986 216.106 243.76 216.106 242.458C216.106 242.076 215.8 241.808 215.417 241.808C214.039 241.808 210.786 239.818 208.873 237.79C205.926 234.651 205.199 232.814 205.199 228.413C205.199 225.275 205.352 224.471 206.194 222.634C208.069 218.693 211.552 215.822 215.417 215.057C217.675 214.598 219.168 214.559 219.168 214.98C219.168 215.172 218.785 215.401 218.287 215.554C216.68 215.937 213.925 218.769 212.7 221.218C210.633 225.352 211.399 229.944 214.767 233.695C217.101 236.297 219.665 237.407 223.377 237.369C225.75 237.369 226.63 237.177 228.352 236.297C229.501 235.723 230.878 234.881 231.376 234.422L232.294 233.58L231.376 235.264C229.233 239.129 224.717 241.846 219.856 242.114C218.02 242.229 216.871 242.458 216.871 242.726C216.871 243.109 218.44 256.083 219.015 260.599C219.244 262.168 219.168 262.436 218.249 263.124C216.795 264.273 216.871 265.995 218.402 266.569C220.698 267.411 221.387 271.353 219.55 272.998C219.129 273.381 218.785 273.878 218.785 274.108C218.823 274.835 221.923 278.012 225.712 281.111C229.654 284.326 230.189 284.747 240.216 291.636C252.654 300.17 256.826 303.576 261.916 309.278C267.312 315.249 269.608 320.76 269.952 328.299C270.144 331.973 270.029 333.236 269.378 335.838C268.536 339.129 267.681 341.156 265.767 342.954V349.078V355.201L273.626 355.163L280.208 355.086L276.267 354.703L272.363 354.359L271.406 352.752C268.153 347.164 268.077 340.199 271.253 334.612C273.664 330.402 278.257 326.307 291.422 316.624C294.368 314.443 297.354 312.07 298.042 311.343C299.191 310.157 299.229 310.004 298.693 309.391C297.277 307.746 297.583 305.335 299.344 304.684C300.53 304.225 300.568 303.651 299.458 302.503L298.616 301.584L299.267 297.681C299.65 295.538 300.032 292.744 300.147 291.443L300.415 289.108L298.616 288.228C297.621 287.769 296.359 286.774 295.784 286.008C294.866 284.822 293.402 280.306 295.823 277.589C298.209 274.91 298.866 274.835 301.12 274.577L301.219 274.565L302.788 274.412L301.334 275.216C299.382 276.288 298.387 278.01 298.387 280.306C298.387 283.942 300.415 285.932 304.166 285.932C305.429 285.932 306.577 285.702 307.036 285.358C308.222 284.439 308.414 284.707 307.495 285.97C306.347 287.501 304.663 288.534 302.673 288.84C301.104 289.07 301.066 289.146 301.066 290.562C301.066 291.366 301.41 293.815 301.831 295.959C302.75 300.666 302.788 301.776 302.023 302.388C301.142 303.115 301.334 303.88 302.597 305.067C303.898 306.253 304.089 307.631 303.171 309.047C302.635 309.851 302.635 310.004 303.63 310.999C305.161 312.53 309.141 315.438 315.991 319.992C329.08 328.68 333.634 333.272 335.586 339.625C336.657 343.261 336.466 348.006 335.05 350.991C333.481 354.321 333.328 354.436 330.343 354.742L327.664 355.048L331.108 355.316C333.022 355.431 337.231 355.469 340.484 355.354L346.416 355.163L346.531 331.933L346.607 308.664L344.694 306.291C342.933 304.072 342.78 303.766 342.78 301.814C342.78 299.9 342.895 299.556 344.12 298.37C345.421 297.068 346.722 296.647 347.181 297.413C347.296 297.642 347.564 297.795 347.794 297.795C347.985 297.795 348.138 287.348 348.138 270.662C348.138 245.824 348.1 243.49 347.488 243.031C347.143 242.725 346.378 241.806 345.765 241.002C344.885 239.778 344.694 239.127 344.694 237.328C344.694 235.721 344.847 235.07 345.268 234.879C345.574 234.764 345.842 234.42 345.842 234.114C345.842 233.769 346.186 233.348 346.569 233.119C347.373 232.736 348.521 232.966 348.521 233.54C348.521 233.731 348.865 233.884 349.286 233.884C350.014 233.884 350.052 233.616 350.052 225.044V216.203L349.133 215.476C348.215 214.749 348.215 214.596 348.406 210.998C348.712 204.952 350.358 201.048 354.606 196.226C355.907 194.772 356.94 193.432 356.94 193.241C356.94 193.088 356.749 192.59 356.481 192.208C356.137 191.634 356.175 191.06 356.673 189.491C357.476 186.965 357.553 183.75 356.787 183.75C355.754 183.75 354.261 181.492 354.261 179.923C354.261 177.397 355.524 175.713 357.859 175.101C359.084 174.795 359.198 175.369 358.012 175.905C355.792 176.861 355.869 180.497 358.089 181.645C359.466 182.372 360.308 182.372 361.648 181.683C362.222 181.377 362.681 181.262 362.681 181.415C362.681 182.028 360.5 183.75 359.428 183.98L358.28 184.171L358.395 186.659C358.471 188.036 358.777 189.605 359.084 190.179C359.505 191.06 359.505 191.327 359.045 192.055C358.739 192.514 358.471 193.088 358.471 193.279C358.471 193.509 359.581 194.887 360.921 196.417C365.13 201.086 367.159 205.87 367.312 211.496C367.388 213.984 367.273 214.519 366.546 215.246C365.781 216.088 365.743 216.471 365.743 225.005C365.743 232.659 365.819 233.884 366.317 233.884C366.623 233.884 366.891 233.693 366.891 233.501C366.891 233.272 367.388 233.119 368.001 233.119C370.22 233.119 371.942 237.367 370.641 239.739C370.412 240.199 369.531 241.385 368.728 242.342L367.273 244.064V271.006C367.273 291.978 367.388 297.834 367.733 297.489C368.575 296.647 370.335 296.915 370.679 297.949C370.871 298.446 371.33 298.944 371.636 299.058C372.095 299.25 372.249 299.862 372.249 301.776C372.249 304.11 372.172 304.301 370.526 306.291L368.804 308.396V334.879V361.324L370.335 359.832C371.177 359.028 373.014 357.727 374.43 356.961C375.884 356.196 377.3 355.354 377.645 355.124C378.18 354.78 379.061 355.086 382.39 356.732C388.934 359.985 391.384 362.358 391.384 365.496C391.384 366.491 391.537 366.682 392.34 366.682H393.297V362.549C393.297 358.798 393.221 358.301 392.494 357.65C391.039 356.349 390.657 355.201 391.154 353.479C391.537 352.178 391.766 351.948 392.647 351.948L393.68 351.986V334.037V316.089L392.532 314.749C391.231 313.295 391.039 311.802 391.996 310.004C392.494 309.009 392.723 308.894 393.718 309.085L394.828 309.353V304.225C394.828 301.393 394.675 298.944 394.445 298.714C394.254 298.523 394.216 297.183 394.407 295.231C394.751 291.825 395.402 290.448 397.66 288.266C398.77 287.195 398.961 286.812 398.77 285.74C398.655 285.013 398.77 284.401 398.999 284.248C399.229 284.095 399.42 283.329 399.42 282.564C399.42 281.378 399.229 281.033 398.272 280.497C397.048 279.808 395.976 277.818 395.976 276.288C395.976 274.91 397.392 272.92 398.846 272.307C400.377 271.657 400.951 271.619 400.951 272.154C400.951 272.346 400.76 272.537 400.492 272.537C400.262 272.537 399.65 272.92 399.153 273.379C398.004 274.451 397.966 276.555 399.114 277.78C400.109 278.852 402.635 279.005 403.707 278.01C404.625 277.206 404.587 277.78 403.63 279.349C403.133 280.153 402.444 280.689 401.678 280.842L400.492 281.071L400.722 283.98C400.99 286.659 401.104 287.003 402.444 288.419C403.286 289.261 404.243 290.562 404.625 291.29C405.429 292.897 405.85 298.331 405.199 298.714C404.931 298.905 404.778 300.742 404.778 304.148V309.315L406.079 309.085C407.266 308.856 407.419 308.932 407.993 310.08C408.873 311.879 408.758 312.912 407.457 314.367L406.309 315.706V333.961C406.309 348.772 406.386 352.139 406.807 351.833C407.381 351.336 407.955 351.642 408.567 352.79C409.332 354.244 409.065 355.507 407.649 357.076L406.309 358.53V373.686V388.802L407.381 389.032C409.332 389.453 453.917 395.959 456.635 396.265C457.476 396.342 455.333 396.456 451.851 396.495C441.365 396.686 -25.8392 396.609 -25.9923 396.418C-26.1071 396.342 -24.9207 396.15 -23.3899 395.997C-17.6111 395.461 23.185 389.3 25.2516 388.649C25.864 388.458 25.9022 387.386 25.9022 373.494V358.53L24.5628 357.076C23.0702 355.431 22.8789 354.282 23.7974 352.522C24.4479 351.259 24.7541 351.144 25.443 351.833C25.7109 352.101 25.9405 352.139 25.9405 351.948C25.9788 351.718 25.9788 343.452 25.9022 333.578L25.8257 315.591L24.7158 314.443C23.4529 313.104 23.2998 311.879 24.2183 310.08C24.7924 308.932 24.9455 308.856 26.1318 309.085L27.433 309.315V304.378C27.433 300.972 27.28 299.25 26.9355 298.791C26.2849 297.91 26.7442 293.012 27.6244 291.29C27.9688 290.601 28.9638 289.299 29.8058 288.381C30.8391 287.271 31.4131 286.238 31.4897 285.434V285.434V285.434V285.434C31.5663 284.783 31.7194 283.482 31.8724 282.602C32.0637 281.263 31.9872 280.995 31.3749 280.803C28.9256 280 27.7392 275.981 29.3848 273.915C30.1885 272.882 32.1785 271.772 33.2501 271.772C33.518 271.772 33.097 272.307 32.2934 272.958C31.107 273.953 30.8774 274.374 30.8774 275.637C30.8774 277.665 31.9107 278.66 33.9773 278.66C34.8192 278.66 35.8525 278.469 36.2735 278.278C37.1537 277.78 37.192 278.01 36.3883 279.234C36.0821 279.732 35.1254 280.421 34.2451 280.727C32.7526 281.339 32.7143 281.416 32.9822 282.794C33.097 283.559 33.2501 284.745 33.3267 285.434C33.4032 286.161 34.0538 287.348 34.9723 288.496C35.8142 289.491 36.8093 290.945 37.192 291.672C38.0339 293.28 38.4549 298.331 37.8043 298.714C37.5364 298.905 37.3833 300.742 37.3833 304.148V309.315L38.6845 309.085C39.8709 308.856 40.024 308.932 40.598 310.08C41.5165 311.879 41.3634 312.797 39.8709 314.52L38.5314 316.089V334.114C38.5314 350.762 38.6462 353.096 39.4882 351.757C40.1005 350.762 41.593 352.79 41.593 354.627C41.593 355.163 41.019 356.234 40.2536 357.076L38.9141 358.53V362.625V366.682H40.1005C40.7511 366.682 41.1721 366.529 41.019 366.299C40.9042 366.108 40.9807 365.19 41.2103 364.309C41.8609 361.86 44.4251 359.64 49.6298 356.961L54.0309 354.703L57.2839 356.579C59.0826 357.574 61.264 359.105 62.1825 359.908L63.7898 361.439V334.956V308.473L61.8763 306.1C60.0776 303.88 59.9628 303.613 59.9628 301.546C59.9628 299.786 60.1159 299.288 60.6899 298.944C61.1109 298.752 61.5701 298.216 61.685 297.795C61.9528 296.992 63.9046 296.686 64.3639 297.413C64.4787 297.604 64.7466 297.795 64.9762 297.795C65.1676 297.795 65.3206 287.424 65.3206 270.815V243.834L63.5985 241.615C62.0294 239.625 61.8763 239.242 61.8763 237.252C61.8763 235.912 62.0677 234.956 62.3738 234.764C62.6035 234.611 63.0244 234.114 63.254 233.693C63.7898 232.736 65.0528 232.506 65.7033 233.31C65.9712 233.616 66.4305 233.884 66.6984 233.884C67.1576 233.884 67.2342 232.277 67.2342 225.044V216.165L66.3157 215.323C65.3972 214.481 65.3589 214.29 65.5503 210.884C65.8947 204.569 67.2724 201.278 71.6735 196.111C73.9315 193.432 73.9315 193.394 73.3191 192.055C72.9747 191.327 73.013 190.907 73.4722 190.218C73.7784 189.72 74.1611 188.151 74.2759 186.697C74.5055 184.209 74.5055 184.094 73.6253 183.788C72.171 183.214 71.0612 181.53 71.0612 179.846C71.0612 177.895 71.9797 176.555 73.9315 175.675C76.1511 174.642 76.419 174.795 74.7734 176.134C73.587 177.129 73.3574 177.512 73.3574 178.813C73.3574 180.88 74.6586 182.219 76.6869 182.219C77.4906 182.219 78.5622 181.951 79.0214 181.607C80.2078 180.765 80.0547 181.492 78.7918 182.717C78.2177 183.291 77.1462 183.865 76.4573 183.98L75.1561 184.247L75.424 186.544C75.5388 187.845 75.845 189.452 76.1129 190.141C76.4573 191.136 76.4573 191.557 76.0363 192.323C76.0099 192.372 75.9845 192.418 75.9604 192.462C75.8349 192.692 75.7425 192.861 75.7196 193.039C75.6557 193.535 76.132 194.101 77.9369 196.246C78.0738 196.409 78.2183 196.58 78.3708 196.762C82.4275 201.546 83.8817 205.143 84.1879 211.075C84.3793 214.29 84.341 214.519 83.4608 215.323C82.5423 216.165 82.5423 216.165 82.5423 225.044C82.5423 233.616 82.5805 233.884 83.3077 233.884C83.7287 233.884 84.0731 233.731 84.0731 233.54C84.0731 232.966 85.2212 232.736 86.0249 233.119C86.4076 233.348 86.752 233.769 86.752 234.037C86.752 234.343 87.0199 234.764 87.3261 235.032C87.6705 235.338 87.9001 236.18 87.9001 237.328C87.9001 238.897 87.6322 239.51 86.178 241.5L84.4558 243.834V270.891C84.4558 291.94 84.5706 297.834 84.915 297.489C85.6804 296.724 87.5557 296.915 87.7853 297.795C87.9001 298.216 88.1297 298.561 88.2828 298.561C89.2013 298.561 89.8136 299.9 89.8136 301.776C89.8136 303.651 89.6605 304.034 87.9001 306.215L85.9866 308.626V331.894C85.9866 344.677 86.1014 355.201 86.2928 355.278C86.4458 355.354 90.426 355.316 95.1715 355.201C99.917 355.086 102.826 354.933 101.639 354.895C99.3047 354.818 98.8454 354.474 97.659 352.139C96.5875 350.073 95.9369 347.202 95.9369 344.677C95.9752 336.295 100.759 330.287 115.072 320.566C122.841 315.285 126.324 312.836 127.893 311.458C129.385 310.157 129.385 310.119 128.773 309.391C127.663 308.167 127.893 306.138 129.232 304.914L130.38 303.919C130.38 303.919 129.176 302.815 128.749 301.894C127.74 299.718 130.38 290.983 130.38 290.983C130.38 290.983 130.725 289.912 130.151 289.567C126.936 287.616 125.673 286.161 125.252 283.827C124.487 279.885 128.122 275.56 132.179 275.599L133.633 275.637L132.217 276.364C130.533 277.283 129.385 278.813 129.041 280.65C128.658 282.602 129.921 285.281 131.605 286.161C133.212 287.042 136.503 287.042 137.843 286.161C139.259 285.243 139.029 286.2 137.498 287.654C136.236 288.802 133.748 289.759 131.911 289.759C131.222 289.759 131.146 289.95 131.299 290.983C131.661 293.349 131.956 295.14 132.183 296.516V296.516C132.819 300.373 132.919 300.982 132.463 301.894C131.736 302.966 131.225 303.919 131.225 303.919C132.435 304.914 134.939 307.465 132.676 309.851C132.676 310.578 136.274 313.792 140.866 317.122C155.447 327.761 158.892 330.976 161.341 336.066C162.68 338.898 162.719 339.013 162.719 343.72C162.719 348.427 162.68 348.58 161.417 351.106C160.69 352.522 159.925 353.823 159.695 354.015C159.466 354.206 157.629 354.55 155.639 354.742C152.007 355.086 152.041 355.086 158.639 355.162L158.662 355.163H166.559ZM74.1228 228.565C74.1228 224.163 74.0463 223.551 73.3191 222.633C72.4006 221.446 71.7883 221.37 70.9464 222.326C70.4106 222.9 70.2958 223.934 70.2958 228.258V233.501H72.2093H74.1228V228.565ZM79.4807 228.22C79.4807 223.551 79.4041 222.824 78.7918 222.288C77.8733 221.446 77.4523 221.485 76.6869 222.326C76.1511 222.9 76.0363 223.934 76.0363 228.258V233.501H77.7585H79.4807V228.22ZM356.94 228.335C356.94 223.666 356.864 223.092 356.175 222.403C355.257 221.485 355.065 221.484 353.955 222.25C353.152 222.786 353.113 223.092 353.113 228.182V233.501H355.027H356.94V228.335ZM362.681 228.22C362.681 223.551 362.604 222.824 361.992 222.288C361.112 221.485 360.767 221.484 359.696 222.25C358.892 222.786 358.854 223.092 358.854 228.182V233.501H360.767H362.681V228.22ZM31.4514 306.291C31.2983 304.684 31.107 303.23 30.9922 303.039C30.8008 302.694 29.9589 302.694 29.6144 303.039C29.4614 303.153 29.3465 304.646 29.3465 306.291V309.277H30.5329H31.7193L31.4514 306.291ZM34.5896 309.277C35.4698 309.277 35.5081 309.238 35.3933 306.138C35.3167 303.536 35.1636 302.962 34.6279 302.847C33.5563 302.656 33.1353 304.072 33.4032 306.789C33.6328 309.085 33.7476 309.277 34.5896 309.277ZM399.038 306.483C399.038 304.837 398.846 303.498 398.578 303.23C397.277 301.929 396.742 302.962 396.742 306.636V309.277H397.89H399.038V306.483ZM402.865 306.521C402.865 304.837 402.673 303.498 402.406 303.23C401.104 301.929 400.454 303.192 400.645 306.789C400.76 308.97 400.798 309.085 401.831 309.2L402.865 309.315V306.521ZM226.286 361.554C224.793 358.53 222.535 356.311 219.206 354.665C217.713 353.9 216.259 353.287 215.991 353.287C215.072 353.287 213.552 353.89 209.838 355.747C206.124 357.604 204.433 364.577 204.433 364.577L204.318 376.709L204.204 388.879H215.914H227.625L227.51 376.326L227.395 363.812L226.286 361.554ZM193.143 367.409C192.148 364.194 190.694 362.511 187.479 360.827C185.987 360.023 184.724 359.411 184.686 359.411C183.844 359.449 179.978 362.09 178.716 363.429C176.113 366.261 175.922 367.294 175.922 378.814V388.879H184.915H193.909V379.35C193.909 370.968 193.832 369.552 193.143 367.409ZM254.682 365.687C254.108 364.615 253.113 363.238 252.424 362.702C251.735 362.128 250.243 361.171 249.018 360.559L246.875 359.487L244.923 360.521C241.517 362.396 240.675 363.199 239.489 365.649C238.456 367.792 238.341 368.442 238.226 372.423C238.188 374.834 238.149 379.541 238.226 382.832L238.302 388.879H247.143H255.945L255.83 378.24L255.715 367.639L254.682 365.687ZM109.714 381.187C109.714 372.499 109.523 371.849 106.499 370.088C105.428 369.476 104.395 368.978 104.165 368.978C103.093 369.017 99.917 371.236 99.1899 372.423C98.501 373.647 98.4245 374.413 98.4245 381.033V388.305L104.088 388.42L109.714 388.534V381.187ZM125.749 373.303C125.214 371.849 123.989 370.586 122.267 369.705C121.463 369.323 120.698 368.978 120.545 368.978C119.971 369.017 117.942 370.203 117.062 371.045C115.11 372.805 114.919 373.647 114.881 381.225V388.305L120.545 388.42L126.17 388.534V381.454C126.17 377.359 125.979 373.915 125.749 373.303ZM140.637 371.045C140.177 370.586 139.221 369.935 138.532 369.591C137.039 368.863 137.001 368.863 135.547 369.629C131.911 371.542 131.528 372.614 131.528 381.416V388.496H137.077H142.627V381.225C142.627 373.456 142.474 372.69 140.637 371.045ZM156.557 370.93C155.945 370.433 154.873 369.82 154.146 369.514C153.457 369.208 152.845 368.978 152.807 368.978C152.233 369.17 150.242 370.433 149.592 371.045C147.755 372.69 147.602 373.456 147.602 381.225V388.496H153.151H158.7V381.416C158.7 373.609 158.471 372.423 156.557 370.93ZM283.155 372.116C282.658 371.428 281.395 370.433 280.362 369.935C279.366 369.399 278.448 368.978 278.41 368.978C278.333 368.978 277.453 369.476 276.381 370.088C273.128 371.963 272.937 372.576 272.937 381.033V388.305H278.486H284.035V380.842C284.035 373.647 283.997 373.341 283.155 372.116ZM299.037 372.04C298.578 371.313 297.66 370.433 297.047 370.088C296.397 369.744 295.555 369.323 295.096 369.208C293.986 368.863 291.115 370.471 290.082 372.04C289.24 373.226 289.202 373.647 289.202 380.88V388.496H294.56H299.918V380.88C299.918 373.647 299.879 373.226 299.037 372.04ZM314.384 371.045C313.925 370.586 312.968 369.935 312.279 369.591C310.672 368.787 310.633 368.787 308.49 370.203C305.505 372.231 305.275 372.958 305.275 381.301V388.496H310.825H316.374V381.225C316.374 373.456 316.221 372.69 314.384 371.045ZM332.907 386.085C333.289 373.111 333.06 372.078 329.615 370.126C328.544 369.476 327.587 368.978 327.472 368.978C326.822 369.017 324.449 370.279 323.722 371.007C321.885 372.729 321.732 373.456 321.732 381.225V388.496H327.281H332.83L332.907 386.085Z" fill="url(#paint2_linear_3007_3110)"/>
<g filter="url(#filter1_f_3007_3110)">
<ellipse cx="206" cy="413.5" rx="250" ry="28.5" fill="#F7FEFC"/>
</g>
<defs>
<filter id="filter0_f_3007_3110" x="-217" y="-6" width="864" height="473" filterUnits="userSpaceOnUse" color-interpolation-filters="sRGB">
<feFlood flood-opacity="0" result="BackgroundImageFix"/>
<feBlend mode="normal" in="SourceGraphic" in2="BackgroundImageFix" result="shape"/>
<feGaussianBlur stdDeviation="40" result="effect1_foregroundBlur_3007_3110"/>
</filter>
<filter id="filter1_f_3007_3110" x="-91" y="338" width="594" height="151" filterUnits="userSpaceOnUse" color-interpolation-filters="sRGB">
<feFlood flood-opacity="0" result="BackgroundImageFix"/>
<feBlend mode="normal" in="SourceGraphic" in2="BackgroundImageFix" result="shape"/>
<feGaussianBlur stdDeviation="23.5" result="effect1_foregroundBlur_3007_3110"/>
</filter>
<linearGradient id="paint0_linear_3007_3110" x1="215" y1="74" x2="215" y2="700" gradientUnits="userSpaceOnUse">
<stop stop-color="#047861" stop-opacity="0.1"/>
<stop offset="1" stop-color="#F7FEFC"/>
</linearGradient>
<linearGradient id="paint1_linear_3007_3110" x1="125.062" y1="99.0795" x2="125.062" y2="183.153" gradientUnits="userSpaceOnUse">
<stop stop-color="white"/>
<stop offset="1" stop-color="#EAF7F2"/>
</linearGradient>
<linearGradient id="paint2_linear_3007_3110" x1="215.409" y1="175" x2="215.409" y2="396.605" gradientUnits="userSpaceOnUse">
<stop stop-color="white"/>
<stop offset="0.87188" stop-color="#E8F6F2"/>
</linearGradient>
</defs>
</svg>
