<svg width="24" height="24" viewBox="0 0 24 24" fill="none" xmlns="http://www.w3.org/2000/svg">
<rect width="24" height="24" rx="12" fill="white"/>
<path d="M11.3333 5.3335H10C6.66668 5.3335 5.33334 6.66683 5.33334 10.0002V14.0002C5.33334 17.3335 6.66668 18.6668 10 18.6668H14C17.3333 18.6668 18.6667 17.3335 18.6667 14.0002V12.6668" stroke="#292D32" stroke-linecap="round" stroke-linejoin="round"/>
<path d="M14.6933 6.0135L9.44001 11.2668C9.24001 11.4668 9.04001 11.8602 9.00001 12.1468L8.71334 14.1535C8.60668 14.8802 9.12001 15.3868 9.84668 15.2868L11.8533 15.0002C12.1333 14.9602 12.5267 14.7602 12.7333 14.5602L17.9867 9.30684C18.8933 8.40017 19.32 7.34684 17.9867 6.0135C16.6533 4.68017 15.6 5.10684 14.6933 6.0135Z" stroke="#292D32" stroke-miterlimit="10" stroke-linecap="round" stroke-linejoin="round"/>
<path d="M13.94 6.7666C14.3867 8.35994 15.6333 9.6066 17.2333 10.0599" stroke="#292D32" stroke-miterlimit="10" stroke-linecap="round" stroke-linejoin="round"/>
</svg>
