<svg width="36" height="36" viewBox="0 0 36 36" fill="none" xmlns="http://www.w3.org/2000/svg">
<rect width="36" height="36" rx="18" fill="#0A0A0A" fill-opacity="0.45"/>
<path d="M19.8887 8.60156L27.3887 16.0742C27.3943 16.0799 27.397 16.0844 27.3984 16.0869C27.397 16.0894 27.3943 16.0938 27.3887 16.0996L19.8887 23.5723H19.8877C19.8868 23.5725 19.8854 23.573 19.8838 23.5732C19.8799 23.5738 19.8751 23.5739 19.8701 23.5732C19.865 23.5726 19.8614 23.5718 19.8604 23.5713C19.8595 23.5709 19.8582 23.5698 19.8564 23.5684C19.8544 23.5666 19.8519 23.5644 19.8506 23.5625C19.8495 23.5608 19.8487 23.5598 19.8486 23.5596H19.8496V19.3916L19.2148 19.4277C14.588 19.6923 10.4968 22.8951 9.14258 27.3887L9.14062 27.3945C9.13879 27.3955 9.13716 27.3976 9.13477 27.3984C9.13065 27.3998 9.12657 27.4004 9.12305 27.4004L9.12207 27.3994C9.11697 27.3955 9.10442 27.3824 9.09375 27.3564C6.95112 20.3312 12.0526 13.1627 19.2812 12.7773L19.8496 12.7471V8.61426H19.8486L19.8525 8.6084C19.8701 8.60306 19.8814 8.60088 19.8877 8.60059L19.8887 8.60156Z" stroke="white" stroke-width="1.2"/>
</svg>
