<svg width="9" height="9" viewBox="0 0 9 9" fill="none" xmlns="http://www.w3.org/2000/svg">
<path d="M5.13102 0.627281L5.90153 2.16715C6.00536 2.38012 6.28406 2.58216 6.51904 2.62584L7.91253 2.85518C8.80327 3.00262 9.01092 3.64696 8.37156 4.29131L7.28409 5.37795C7.10376 5.55815 6.99993 5.91309 7.06004 6.16973L7.37153 7.51302C7.61744 8.57237 7.04911 8.98737 6.11466 8.4304L4.8086 7.655C4.57362 7.51302 4.18017 7.51302 3.94519 7.655L2.63913 8.4304C1.70468 8.98191 1.13635 8.57237 1.38226 7.51302L1.69375 6.16973C1.74293 5.90763 1.6391 5.55269 1.45877 5.37249L0.371298 4.28584C-0.268067 3.64696 -0.0604097 3.00262 0.83033 2.84972L2.22382 2.62038C2.4588 2.58216 2.7375 2.37466 2.84132 2.16169L3.61184 0.621821C4.03262 -0.208182 4.71024 -0.208181 5.13102 0.627281Z" fill="white"/>
</svg>
