<svg width="24" height="24" viewBox="0 0 24 24" fill="none" xmlns="http://www.w3.org/2000/svg">
<path d="M5.49994 2H4.09994C3.09994 2 2.59994 3.1 3.29994 3.8L8.99994 9.5C10.5999 11.1 13.2999 11.1 14.8999 9.5L20.5999 3.8C21.3999 3.1 20.8999 2 19.8999 2H18.4999C17.6999 2 16.8999 2.3 16.2999 2.9L12.6999 6.5C12.2999 6.9 11.5999 6.9 11.1999 6.5L7.69994 2.9C7.09994 2.3 6.29994 2 5.49994 2Z" stroke="#6E6E6E" stroke-width="1.5" stroke-miterlimit="10" stroke-linecap="round" stroke-linejoin="round"/>
<path d="M5.50004 21.9998H4.10004C3.20004 21.9998 2.70004 20.8998 3.40004 20.1998L9.00004 14.4998C10.6 12.8998 13.3 12.8998 14.9 14.4998L20.6 20.1998C21.3 20.8998 20.8 21.9998 19.9 21.9998H18.5C17.7 21.9998 16.9 21.6998 16.3 21.0998L12.7 17.4998C12.3 17.0998 11.6 17.0998 11.2 17.4998L7.60004 21.0998C7.10004 21.5998 6.30004 21.9998 5.50004 21.9998Z" stroke="#6E6E6E" stroke-width="1.5" stroke-miterlimit="10" stroke-linecap="round" stroke-linejoin="round"/>
</svg>
